<svg id="svg" version="1.1" xmlns="http://www.w3.org/2000/svg" xmlns:xlink="http://www.w3.org/1999/xlink" width="400" height="400" viewBox="0, 0, 400,400"><g id="svgg"><path id="path0" d="M257.031 197.121 C 240.389 199.379,218.434 207.729,199.609 218.961 C 172.550 235.106,146.527 238.939,121.455 230.472 C 113.461 227.772,110.233 227.928,105.844 231.226 C 100.074 235.561,98.917 241.455,101.008 255.859 C 111.655 329.195,194.914 366.401,255.664 324.971 C 286.993 303.605,304.573 264.871,299.088 229.297 C 295.546 206.333,279.519 194.071,257.031 197.121 M262.477 227.921 C 270.485 230.747,271.241 241.584,263.697 245.410 C 257.357 248.625,249.922 244.155,249.922 237.129 C 249.922 230.403,256.284 225.737,262.477 227.921 M193.262 250.217 C 196.263 253.627,191.459 258.316,188.251 255.108 C 186.433 253.290,186.769 250.651,188.975 249.421 C 190.380 248.638,192.163 248.969,193.262 250.217 M147.435 264.477 C 155.620 267.540,157.769 278.823,151.302 284.784 C 143.257 292.200,130.656 286.497,130.742 275.479 C 130.807 267.196,139.460 261.493,147.435 264.477 M227.480 277.272 C 242.143 282.543,246.258 301.234,235.159 312.155 C 221.971 325.133,199.684 315.944,199.517 297.461 C 199.385 282.849,213.881 272.383,227.480 277.272 " stroke="none" fill="#2c8cd4" fill-rule="evenodd"></path><path id="path1" d="M149.805 34.063 C 142.504 36.629,140.633 46.439,146.443 51.678 C 149.103 54.075,146.348 53.957,199.197 53.935 L 248.215 53.915 249.986 52.825 C 256.479 48.830,256.396 39.011,249.835 34.972 L 247.913 33.789 199.445 33.720 C 166.287 33.673,150.606 33.781,149.805 34.063 M168.029 69.824 C 174.460 82.750,173.421 99.286,165.400 111.631 C 160.878 118.592,155.100 123.244,144.336 128.589 C 91.763 154.698,63.892 211.516,75.621 268.671 C 85.982 319.154,127.836 359.456,178.711 367.937 C 267.016 382.657,342.293 304.592,324.375 216.880 C 316.582 178.731,291.546 146.447,256.055 128.778 C 244.825 123.188,239.173 118.671,234.600 111.631 C 226.579 99.286,225.540 82.750,231.971 69.824 L 233.866 66.016 200.000 66.016 L 166.134 66.016 168.029 69.824 M159.653 149.437 C 169.267 154.141,169.448 164.713,160.131 177.370 C 150.076 191.029,135.781 198.658,121.574 197.947 C 110.005 197.367,108.834 189.962,117.577 172.676 C 126.203 155.621,147.852 143.664,159.653 149.437 M272.656 197.300 C 286.971 200.627,296.850 212.153,299.230 228.306 C 307.138 281.980,268.548 333.525,214.569 341.387 C 154.971 350.067,100.268 303.833,99.975 244.534 C 99.906 230.441,107.948 225.375,122.461 230.371 C 146.457 238.632,172.343 234.764,198.828 218.960 C 226.540 202.424,256.668 193.585,272.656 197.300 " stroke="none" fill="#b3dbfb" fill-rule="evenodd"></path><path id="path2" d="M158.763 57.465 C 160.604 59.207,162.935 61.756,163.943 63.129 L 165.776 65.625 200.000 65.625 L 234.224 65.625 236.057 63.129 C 237.065 61.756,239.396 59.207,241.237 57.465 L 244.583 54.297 200.000 54.297 L 155.417 54.297 158.763 57.465 " stroke="none" fill="#64b2f3" fill-rule="evenodd"></path><path id="path3" d="M148.334 149.056 C 131.407 152.116,116.716 168.156,112.626 188.044 C 111.320 194.392,113.896 197.136,121.557 197.559 C 137.837 198.456,155.889 186.648,164.069 169.752 C 170.617 156.228,163.130 146.381,148.334 149.056 " stroke="none" fill="#fcfcfc" fill-rule="evenodd"></path><path id="path4" d="M256.445 227.815 C 248.013 230.762,247.704 242.434,255.966 245.886 C 261.133 248.045,267.572 244.540,268.736 238.935 C 270.215 231.809,263.194 225.456,256.445 227.815 M188.975 249.421 C 186.769 250.651,186.433 253.290,188.251 255.108 C 189.707 256.564,191.311 256.609,192.939 255.239 C 196.111 252.569,192.592 247.405,188.975 249.421 M138.447 264.475 C 130.602 267.493,128.191 277.676,133.835 283.953 C 139.870 290.665,150.404 289.028,154.095 280.804 C 158.524 270.935,148.593 260.572,138.447 264.475 M215.234 276.705 C 194.180 282.829,194.344 312.185,215.463 317.587 C 236.021 322.844,250.421 296.807,235.106 282.071 C 230.027 277.184,221.502 274.883,215.234 276.705 " stroke="none" fill="#1c74bc" fill-rule="evenodd"></path><path id="path5" d="M287.545 205.769 C 289.396 207.529,291.579 209.940,292.395 211.126 C 294.031 213.500,294.579 213.969,293.479 212.051 C 292.596 210.512,287.026 204.564,285.396 203.421 C 284.727 202.951,285.694 204.008,287.545 205.769 M218.359 208.789 C 217.822 209.096,217.559 209.347,217.773 209.347 C 217.988 209.347,218.604 209.096,219.141 208.789 C 219.678 208.482,219.941 208.231,219.727 208.231 C 219.512 208.231,218.896 208.482,218.359 208.789 M295.197 215.809 C 295.774 216.985,296.311 217.881,296.391 217.801 C 296.567 217.626,294.597 213.672,294.334 213.672 C 294.232 213.672,294.621 214.634,295.197 215.809 M205.371 215.261 C 204.565 215.686,203.906 216.122,203.906 216.228 C 203.906 216.335,204.609 216.063,205.469 215.625 C 206.328 215.187,207.031 214.744,207.031 214.640 C 207.031 214.385,207.029 214.386,205.371 215.261 M202.246 217.020 C 200.786 217.813,200.875 218.143,202.344 217.383 C 202.988 217.050,203.516 216.693,203.516 216.592 C 203.516 216.340,203.474 216.354,202.246 217.020 M193.652 222.098 C 192.192 222.891,192.281 223.221,193.750 222.461 C 194.395 222.128,194.922 221.772,194.922 221.670 C 194.922 221.418,194.880 221.432,193.652 222.098 M105.253 231.214 C 103.816 232.272,102.502 233.773,101.801 235.156 C 101.638 235.479,101.913 235.216,102.412 234.574 C 103.574 233.079,104.185 232.474,105.863 231.157 C 107.680 229.731,107.205 229.775,105.253 231.214 M140.332 234.644 C 140.708 234.743,141.323 234.743,141.699 234.644 C 142.075 234.546,141.768 234.466,141.016 234.466 C 140.264 234.466,139.956 234.546,140.332 234.644 M100.091 248.828 C 100.091 249.580,100.171 249.888,100.269 249.512 C 100.368 249.136,100.368 248.521,100.269 248.145 C 100.171 247.769,100.091 248.076,100.091 248.828 M289.340 286.537 C 288.546 288.141,287.981 289.453,288.084 289.453 C 288.345 289.453,291.098 283.937,290.924 283.763 C 290.846 283.685,290.133 284.933,289.340 286.537 M112.305 290.625 C 112.638 291.270,112.999 291.797,113.106 291.797 C 113.213 291.797,113.029 291.270,112.695 290.625 C 112.362 289.980,112.001 289.453,111.894 289.453 C 111.787 289.453,111.971 289.980,112.305 290.625 M114.012 293.555 C 114.223 293.984,114.682 294.688,115.032 295.117 L 115.668 295.898 115.285 295.117 C 115.074 294.688,114.615 293.984,114.265 293.555 L 113.629 292.773 114.012 293.555 M281.250 300.000 C 280.791 300.645,280.503 301.172,280.611 301.172 C 280.718 301.172,281.182 300.645,281.641 300.000 C 282.100 299.355,282.387 298.828,282.280 298.828 C 282.172 298.828,281.709 299.355,281.250 300.000 M118.750 300.781 C 119.209 301.426,119.672 301.953,119.780 301.953 C 119.887 301.953,119.600 301.426,119.141 300.781 C 118.682 300.137,118.218 299.609,118.111 299.609 C 118.003 299.609,118.291 300.137,118.750 300.781 M121.751 304.779 C 124.096 307.814,133.446 317.258,136.328 319.503 L 138.477 321.176 136.133 319.094 C 131.287 314.789,126.394 309.837,123.343 306.152 C 119.789 301.859,118.908 301.099,121.751 304.779 M276.659 305.957 C 273.842 309.349,269.183 314.182,265.421 317.614 C 263.912 318.991,263.033 319.842,263.467 319.505 C 267.409 316.454,274.909 308.826,278.516 304.199 C 280.248 301.978,278.919 303.236,276.659 305.957 M260.742 321.313 C 260.098 321.849,257.988 323.363,256.055 324.679 C 252.694 326.966,251.037 328.240,252.344 327.531 C 254.712 326.247,262.726 320.348,262.109 320.342 C 262.002 320.341,261.387 320.778,260.742 321.313 M141.797 323.615 C 141.797 323.716,142.808 324.478,144.043 325.308 C 146.779 327.146,147.266 327.436,147.266 327.229 C 147.266 327.140,146.035 326.250,144.531 325.250 C 143.027 324.249,141.797 323.514,141.797 323.615 M247.949 329.714 C 247.144 330.139,246.484 330.575,246.484 330.681 C 246.484 330.788,247.187 330.517,248.047 330.078 C 248.906 329.640,249.609 329.197,249.609 329.094 C 249.609 328.838,249.607 328.839,247.949 329.714 M153.125 330.662 C 153.125 330.925,157.079 332.895,157.254 332.719 C 157.335 332.639,156.438 332.102,155.263 331.526 C 154.087 330.949,153.125 330.560,153.125 330.662 M198.931 342.468 C 199.525 342.558,200.404 342.555,200.884 342.462 C 201.365 342.370,200.879 342.296,199.805 342.299 C 198.730 342.302,198.337 342.378,198.931 342.468 " stroke="none" fill="#94bcec" fill-rule="evenodd"></path><path id="path6" d="M177.441 54.199 C 189.849 54.256,210.151 54.256,222.559 54.199 C 234.966 54.142,224.814 54.095,200.000 54.095 C 175.186 54.095,165.034 54.142,177.441 54.199 M182.910 65.918 C 192.310 65.976,207.690 65.976,217.090 65.918 C 226.489 65.860,218.799 65.812,200.000 65.812 C 181.201 65.812,173.511 65.860,182.910 65.918 M128.711 312.891 C 129.550 313.750,130.325 314.453,130.432 314.453 C 130.539 314.453,129.941 313.750,129.102 312.891 C 128.262 312.031,127.488 311.328,127.381 311.328 C 127.273 311.328,127.872 312.031,128.711 312.891 " stroke="none" fill="#90ccf7" fill-rule="evenodd"></path><path id="path7" d="M147.943 148.641 C 131.584 151.731,117.821 166.032,112.868 185.085 C 110.392 194.609,112.338 197.484,121.574 197.947 C 138.346 198.787,156.267 187.165,164.446 170.143 C 171.252 155.977,163.382 145.724,147.943 148.641 M156.606 148.857 C 165.918 150.854,169.018 159.531,164.069 169.752 C 155.889 186.648,137.837 198.456,121.557 197.559 C 110.739 196.962,109.568 190.514,117.353 174.414 C 125.323 157.934,143.561 146.060,156.606 148.857 " stroke="none" fill="#bcdcfc" fill-rule="evenodd"></path><path id="path8" d="M288.656 206.348 C 290.274 208.072,290.625 208.382,290.625 208.089 C 290.625 208.026,289.790 207.191,288.770 206.234 L 286.914 204.492 288.656 206.348 M202.051 342.457 C 202.427 342.555,203.042 342.555,203.418 342.457 C 203.794 342.359,203.486 342.278,202.734 342.278 C 201.982 342.278,201.675 342.359,202.051 342.457 " stroke="none" fill="#9cc4ec" fill-rule="evenodd"></path></g></svg>